<mxfile host="Electron" agent="Mozilla/5.0 (Macintosh; Intel Mac OS X 10_15_7) AppleWebKit/537.36 (KHTML, like Gecko) draw.io/28.2.8 Chrome/140.0.7339.240 Electron/38.4.0 Safari/537.36" version="28.2.8">
  <diagram name="Page-1" id="iRUFGKuxpseCHY59jAt8">
    <mxGraphModel dx="1616" dy="1305" grid="1" gridSize="10" guides="1" tooltips="1" connect="1" arrows="1" fold="1" page="0" pageScale="1" pageWidth="850" pageHeight="1100" math="0" shadow="0">
      <root>
        <mxCell id="0" />
        <mxCell id="1" parent="0" />
        <mxCell id="ph3b_r3kZmQ6eec2h-Ne-1" value="&lt;p dir=&quot;ltr&quot; style=&quot;box-sizing: border-box; margin: 6pt 0px; padding: 0px; color: rgb(0, 0, 0); font-family: SFProDisplay; font-size: 16px; font-style: normal; font-variant-ligatures: normal; font-variant-caps: normal; font-weight: 400; letter-spacing: normal; orphans: 2; text-align: start; text-indent: 0px; text-transform: none; widows: 2; word-spacing: 0px; -webkit-text-stroke-width: 0px; white-space: normal; background-color: rgb(255, 255, 255); text-decoration-thickness: initial; text-decoration-style: initial; text-decoration-color: initial; line-height: 1.8;&quot;&gt;&lt;span style=&quot;box-sizing: border-box; margin: 0px; padding: 0px; background-color: transparent; color: rgb(0, 0, 0); font-family: Arial, sans-serif; font-size: 12pt;&quot;&gt;&lt;span style=&quot;box-sizing: border-box; margin: 0px; padding: 0px; font-style: normal; font-variant: normal; text-decoration: none; vertical-align: baseline; white-space: pre-wrap;&quot;&gt;&lt;strong style=&quot;box-sizing: border-box; margin: 0px; padding: 0px; font-weight: bolder;&quot;&gt;Chức năng mô tả nghiệp vụ:&lt;/strong&gt;&lt;/span&gt;&lt;/span&gt;&lt;br style=&quot;box-sizing: border-box; margin: 0px; padding: 0px;&quot;&gt;&lt;span style=&quot;box-sizing: border-box; margin: 0px; padding: 0px; background-color: transparent; color: rgb(0, 0, 0); font-family: Arial, sans-serif; font-size: 12pt;&quot;&gt;&lt;span style=&quot;box-sizing: border-box; margin: 0px; padding: 0px; font-style: normal; font-variant: normal; font-weight: 400; text-decoration: none; vertical-align: baseline; white-space: pre-wrap;&quot;&gt; &quot;Khách hàng gửi yêu cầu đăng nhập. Website xác minh. Nếu đúng, trả về giao diện cá nhân.&quot;&lt;/span&gt;&lt;/span&gt;&lt;/p&gt;&lt;p dir=&quot;ltr&quot; style=&quot;box-sizing: border-box; margin: 6pt 0px; padding: 0px; color: rgb(0, 0, 0); font-family: SFProDisplay; font-size: 16px; font-style: normal; font-variant-ligatures: normal; font-variant-caps: normal; font-weight: 400; letter-spacing: normal; orphans: 2; text-align: start; text-indent: 0px; text-transform: none; widows: 2; word-spacing: 0px; -webkit-text-stroke-width: 0px; white-space: normal; background-color: rgb(255, 255, 255); text-decoration-thickness: initial; text-decoration-style: initial; text-decoration-color: initial; line-height: 1.8;&quot;&gt;&lt;span style=&quot;box-sizing: border-box; margin: 0px; padding: 0px; background-color: transparent; color: rgb(0, 0, 0); font-family: Arial, sans-serif; font-size: 12pt;&quot;&gt;&lt;span style=&quot;box-sizing: border-box; margin: 0px; padding: 0px; font-style: normal; font-variant: normal; text-decoration: none; vertical-align: baseline; white-space: pre-wrap;&quot;&gt;&lt;strong style=&quot;box-sizing: border-box; margin: 0px; padding: 0px; font-weight: bolder;&quot;&gt;Yêu cầu:&lt;/strong&gt;&lt;/span&gt;&lt;/span&gt;&lt;/p&gt;&lt;ol style=&quot;box-sizing: border-box; margin: 0px; padding: 0px 0px 0px 2rem; color: rgb(33, 37, 41); font-family: SFProDisplay; font-size: 16px; font-style: normal; font-variant-ligatures: normal; font-variant-caps: normal; font-weight: 400; letter-spacing: normal; orphans: 2; text-align: start; text-indent: 0px; text-transform: none; widows: 2; word-spacing: 0px; -webkit-text-stroke-width: 0px; white-space: normal; background-color: rgb(255, 255, 255); text-decoration-thickness: initial; text-decoration-style: initial; text-decoration-color: initial; padding-inline-start: 48px;&quot;&gt;&lt;li dir=&quot;ltr&quot; aria-level=&quot;1&quot; style=&quot;box-sizing: border-box; margin: 0px; padding: 0px; background-color: transparent; color: rgb(0, 0, 0); font-family: Arial, sans-serif; font-size: 12pt; font-style: normal; font-variant: normal; font-weight: 400; list-style-type: decimal; text-decoration: none; vertical-align: baseline; white-space: pre;&quot;&gt;&lt;span style=&quot;box-sizing: border-box; margin: 0px; padding: 0px; background-color: transparent; color: rgb(0, 0, 0); font-family: Arial, sans-serif; font-size: 12pt;&quot;&gt;&lt;span style=&quot;box-sizing: border-box; margin: 0px; padding: 0px; font-style: normal; font-variant: normal; font-weight: 400; text-decoration: none; vertical-align: baseline; white-space: pre-wrap;&quot;&gt;Vẽ&amp;nbsp;&lt;/span&gt;&lt;span style=&quot;box-sizing: border-box; margin: 0px; padding: 0px; font-style: normal; font-variant: normal; text-decoration: none; vertical-align: baseline; white-space: pre-wrap;&quot;&gt;&lt;strong style=&quot;box-sizing: border-box; margin: 0px; padding: 0px; font-weight: bolder;&quot;&gt;Sequence Diagram&lt;/strong&gt;&lt;/span&gt;&lt;span style=&quot;box-sizing: border-box; margin: 0px; padding: 0px; font-style: normal; font-variant: normal; font-weight: 400; text-decoration: none; vertical-align: baseline; white-space: pre-wrap;&quot;&gt; cho quá trình đăng nhập của khách hàng.&lt;/span&gt;&lt;/span&gt;&lt;/li&gt;&lt;li dir=&quot;ltr&quot; aria-level=&quot;1&quot; style=&quot;box-sizing: border-box; margin: 0px; padding: 0px; background-color: transparent; color: rgb(0, 0, 0); font-family: Arial, sans-serif; font-size: 12pt; font-style: normal; font-variant: normal; font-weight: 400; list-style-type: decimal; text-decoration: none; vertical-align: baseline; white-space: pre;&quot;&gt;&lt;span style=&quot;box-sizing: border-box; margin: 0px; padding: 0px; background-color: transparent; color: rgb(0, 0, 0); font-family: Arial, sans-serif; font-size: 12pt;&quot;&gt;&lt;span style=&quot;box-sizing: border-box; margin: 0px; padding: 0px; font-style: normal; font-variant: normal; font-weight: 400; text-decoration: none; vertical-align: baseline; white-space: pre-wrap;&quot;&gt;Phân loại các thông điệp trong sơ đồ theo các loại sau:&lt;/span&gt;&lt;/span&gt;&lt;ul style=&quot;box-sizing: border-box; margin: 0px; padding: 0px 0px 0px 2rem; list-style: circle; padding-inline-start: 48px;&quot;&gt;&lt;li dir=&quot;ltr&quot; aria-level=&quot;2&quot; style=&quot;box-sizing: border-box; margin: 0px; padding: 0px; background-color: transparent; color: rgb(0, 0, 0); font-family: Arial, sans-serif; font-size: 12pt; font-style: normal; font-variant: normal; font-weight: 400; list-style-type: circle; text-decoration: none; vertical-align: baseline; white-space: pre;&quot;&gt;&lt;span style=&quot;box-sizing: border-box; margin: 0px; padding: 0px; background-color: transparent; color: rgb(0, 0, 0); font-family: Arial, sans-serif; font-size: 12pt;&quot;&gt;&lt;span style=&quot;box-sizing: border-box; margin: 0px; padding: 0px; font-style: normal; font-variant: normal; text-decoration: none; vertical-align: baseline; white-space: pre-wrap;&quot;&gt;&lt;strong style=&quot;box-sizing: border-box; margin: 0px; padding: 0px; font-weight: bolder;&quot;&gt;Synchronous Message&lt;/strong&gt;&lt;/span&gt;&lt;span style=&quot;box-sizing: border-box; margin: 0px; padding: 0px; font-style: normal; font-variant: normal; font-weight: 400; text-decoration: none; vertical-align: baseline; white-space: pre-wrap;&quot;&gt;: Thông điệp đồng bộ, nơi đối tượng gửi thông điệp phải chờ đợi phản hồi từ đối tượng nhận.&lt;/span&gt;&lt;/span&gt;&lt;/li&gt;&lt;li dir=&quot;ltr&quot; aria-level=&quot;2&quot; style=&quot;box-sizing: border-box; margin: 0px; padding: 0px; background-color: transparent; color: rgb(0, 0, 0); font-family: Arial, sans-serif; font-size: 12pt; font-style: normal; font-variant: normal; font-weight: 400; list-style-type: circle; text-decoration: none; vertical-align: baseline; white-space: pre;&quot;&gt;&lt;span style=&quot;box-sizing: border-box; margin: 0px; padding: 0px; background-color: transparent; color: rgb(0, 0, 0); font-family: Arial, sans-serif; font-size: 12pt;&quot;&gt;&lt;span style=&quot;box-sizing: border-box; margin: 0px; padding: 0px; font-style: normal; font-variant: normal; text-decoration: none; vertical-align: baseline; white-space: pre-wrap;&quot;&gt;&lt;strong style=&quot;box-sizing: border-box; margin: 0px; padding: 0px; font-weight: bolder;&quot;&gt;Asynchronous Message&lt;/strong&gt;&lt;/span&gt;&lt;span style=&quot;box-sizing: border-box; margin: 0px; padding: 0px; font-style: normal; font-variant: normal; font-weight: 400; text-decoration: none; vertical-align: baseline; white-space: pre-wrap;&quot;&gt;: Thông điệp bất đồng bộ, nơi đối tượng gửi thông điệp không cần chờ đợi phản hồi và tiếp tục thực hiện các hành động khác.&lt;/span&gt;&lt;/span&gt;&lt;/li&gt;&lt;li dir=&quot;ltr&quot; aria-level=&quot;2&quot; style=&quot;box-sizing: border-box; margin: 0px; padding: 0px; background-color: transparent; color: rgb(0, 0, 0); font-family: Arial, sans-serif; font-size: 12pt; font-style: normal; font-variant: normal; font-weight: 400; list-style-type: circle; text-decoration: none; vertical-align: baseline; white-space: pre;&quot;&gt;&lt;span style=&quot;box-sizing: border-box; margin: 0px; padding: 0px; background-color: transparent; color: rgb(0, 0, 0); font-family: Arial, sans-serif; font-size: 12pt;&quot;&gt;&lt;span style=&quot;box-sizing: border-box; margin: 0px; padding: 0px; font-style: normal; font-variant: normal; text-decoration: none; vertical-align: baseline; white-space: pre-wrap;&quot;&gt;&lt;strong style=&quot;box-sizing: border-box; margin: 0px; padding: 0px; font-weight: bolder;&quot;&gt;Return Message&lt;/strong&gt;&lt;/span&gt;&lt;span style=&quot;box-sizing: border-box; margin: 0px; padding: 0px; font-style: normal; font-variant: normal; font-weight: 400; text-decoration: none; vertical-align: baseline; white-space: pre-wrap;&quot;&gt;: Thông điệp trả về, chỉ ra kết quả của một hành động.&lt;/span&gt;&lt;/span&gt;&lt;/li&gt;&lt;/ul&gt;&lt;/li&gt;&lt;/ol&gt;&lt;p dir=&quot;ltr&quot; style=&quot;box-sizing: border-box; margin: 6pt 0px; padding: 0px; color: rgb(0, 0, 0); font-family: SFProDisplay; font-size: 16px; font-style: normal; font-variant-ligatures: normal; font-variant-caps: normal; font-weight: 400; letter-spacing: normal; orphans: 2; text-align: start; text-indent: 0px; text-transform: none; widows: 2; word-spacing: 0px; -webkit-text-stroke-width: 0px; white-space: normal; background-color: rgb(255, 255, 255); text-decoration-thickness: initial; text-decoration-style: initial; text-decoration-color: initial; line-height: 1.8;&quot;&gt;&lt;span style=&quot;box-sizing: border-box; margin: 0px; padding: 0px; background-color: transparent; color: rgb(0, 0, 0); font-family: Arial, sans-serif; font-size: 12pt;&quot;&gt;&lt;span style=&quot;box-sizing: border-box; margin: 0px; padding: 0px; font-style: normal; font-variant: normal; text-decoration: none; vertical-align: baseline; white-space: pre-wrap;&quot;&gt;&lt;strong style=&quot;box-sizing: border-box; margin: 0px; padding: 0px; font-weight: bolder;&quot;&gt;Chi tiết phân loại thông điệp:&lt;/strong&gt;&lt;/span&gt;&lt;/span&gt;&lt;/p&gt;&lt;ul style=&quot;box-sizing: border-box; margin: 0px; padding: 0px 0px 0px 2rem; list-style: circle; color: rgb(33, 37, 41); font-family: SFProDisplay; font-size: 16px; font-style: normal; font-variant-ligatures: normal; font-variant-caps: normal; font-weight: 400; letter-spacing: normal; orphans: 2; text-align: start; text-indent: 0px; text-transform: none; widows: 2; word-spacing: 0px; -webkit-text-stroke-width: 0px; white-space: normal; background-color: rgb(255, 255, 255); text-decoration-thickness: initial; text-decoration-style: initial; text-decoration-color: initial; padding-inline-start: 48px;&quot;&gt;&lt;li dir=&quot;ltr&quot; aria-level=&quot;1&quot; style=&quot;box-sizing: border-box; margin: 0px; padding: 0px; background-color: transparent; color: rgb(0, 0, 0); font-family: Arial, sans-serif; font-size: 12pt; font-style: normal; font-variant: normal; font-weight: 400; list-style-type: disc; text-decoration: none; vertical-align: baseline; white-space: pre;&quot;&gt;&lt;span style=&quot;box-sizing: border-box; margin: 0px; padding: 0px; background-color: transparent; color: rgb(0, 0, 0); font-family: Arial, sans-serif; font-size: 12pt;&quot;&gt;&lt;span style=&quot;box-sizing: border-box; margin: 0px; padding: 0px; font-style: normal; font-variant: normal; font-weight: 400; text-decoration: none; vertical-align: baseline; white-space: pre-wrap;&quot;&gt;Đánh dấu các thông điệp gửi đi và nhận lại, sau đó phân loại chúng vào đúng loại: synchronous, asynchronous, hoặc return.&lt;/span&gt;&lt;/span&gt;&lt;/li&gt;&lt;li dir=&quot;ltr&quot; aria-level=&quot;1&quot; style=&quot;box-sizing: border-box; margin: 0px; padding: 0px; background-color: transparent; color: rgb(0, 0, 0); font-family: Arial, sans-serif; font-size: 12pt; font-style: normal; font-variant: normal; font-weight: 400; list-style-type: disc; text-decoration: none; vertical-align: baseline; white-space: pre;&quot;&gt;&lt;span style=&quot;box-sizing: border-box; margin: 0px; padding: 0px; background-color: transparent; color: rgb(0, 0, 0); font-family: Arial, sans-serif; font-size: 12pt;&quot;&gt;&lt;span style=&quot;box-sizing: border-box; margin: 0px; padding: 0px; font-style: normal; font-variant: normal; text-decoration: none; vertical-align: baseline; white-space: pre-wrap;&quot;&gt;&lt;strong style=&quot;box-sizing: border-box; margin: 0px; padding: 0px; font-weight: bolder;&quot;&gt;Chú ý&lt;/strong&gt;&lt;/span&gt;&lt;span style=&quot;box-sizing: border-box; margin: 0px; padding: 0px; font-style: normal; font-variant: normal; font-weight: 400; text-decoration: none; vertical-align: baseline; white-space: pre-wrap;&quot;&gt; đến các thông điệp giữa khách hàng, website và hệ thống xác minh.&lt;/span&gt;&lt;/span&gt;&lt;/li&gt;&lt;/ul&gt;" style="text;whiteSpace=wrap;html=1;" parent="1" vertex="1">
          <mxGeometry x="-20" y="-10" width="560" height="440" as="geometry" />
        </mxCell>
        <mxCell id="ph3b_r3kZmQ6eec2h-Ne-3" value="website" style="shape=umlLifeline;perimeter=lifelinePerimeter;whiteSpace=wrap;html=1;container=1;dropTarget=0;collapsible=0;recursiveResize=0;outlineConnect=0;portConstraint=eastwest;newEdgeStyle={&quot;curved&quot;:0,&quot;rounded&quot;:0};" parent="1" vertex="1">
          <mxGeometry x="280" y="460" width="100" height="360" as="geometry" />
        </mxCell>
        <mxCell id="ph3b_r3kZmQ6eec2h-Ne-9" value="" style="html=1;points=[[0,0,0,0,5],[0,1,0,0,-5],[1,0,0,0,5],[1,1,0,0,-5]];perimeter=orthogonalPerimeter;outlineConnect=0;targetShapes=umlLifeline;portConstraint=eastwest;newEdgeStyle={&quot;curved&quot;:0,&quot;rounded&quot;:0};" parent="ph3b_r3kZmQ6eec2h-Ne-3" vertex="1">
          <mxGeometry x="45" y="80" width="10" height="80" as="geometry" />
        </mxCell>
        <mxCell id="ph3b_r3kZmQ6eec2h-Ne-4" value="authentication" style="shape=umlLifeline;perimeter=lifelinePerimeter;whiteSpace=wrap;html=1;container=1;dropTarget=0;collapsible=0;recursiveResize=0;outlineConnect=0;portConstraint=eastwest;newEdgeStyle={&quot;curved&quot;:0,&quot;rounded&quot;:0};" parent="1" vertex="1">
          <mxGeometry x="600" y="450" width="100" height="350" as="geometry" />
        </mxCell>
        <mxCell id="ph3b_r3kZmQ6eec2h-Ne-12" value="" style="html=1;points=[[0,0,0,0,5],[0,1,0,0,-5],[1,0,0,0,5],[1,1,0,0,-5]];perimeter=orthogonalPerimeter;outlineConnect=0;targetShapes=umlLifeline;portConstraint=eastwest;newEdgeStyle={&quot;curved&quot;:0,&quot;rounded&quot;:0};" parent="ph3b_r3kZmQ6eec2h-Ne-4" vertex="1">
          <mxGeometry x="45" y="120" width="10" height="230" as="geometry" />
        </mxCell>
        <mxCell id="ph3b_r3kZmQ6eec2h-Ne-7" value="" style="shape=umlLifeline;perimeter=lifelinePerimeter;whiteSpace=wrap;html=1;container=1;dropTarget=0;collapsible=0;recursiveResize=0;outlineConnect=0;portConstraint=eastwest;newEdgeStyle={&quot;curved&quot;:0,&quot;rounded&quot;:0};participant=umlActor;" parent="1" vertex="1">
          <mxGeometry x="10" y="460" width="20" height="360" as="geometry" />
        </mxCell>
        <mxCell id="ph3b_r3kZmQ6eec2h-Ne-8" value="khách hàng" style="text;html=1;whiteSpace=wrap;strokeColor=none;fillColor=none;align=center;verticalAlign=middle;rounded=0;" parent="1" vertex="1">
          <mxGeometry x="-40" y="490" width="120" height="30" as="geometry" />
        </mxCell>
        <mxCell id="ph3b_r3kZmQ6eec2h-Ne-10" value="1. khách hàng nhập email và mật khẩu" style="html=1;verticalAlign=bottom;endArrow=block;curved=0;rounded=0;entryX=0;entryY=0;entryDx=0;entryDy=5;" parent="1" source="ph3b_r3kZmQ6eec2h-Ne-7" target="ph3b_r3kZmQ6eec2h-Ne-9" edge="1">
          <mxGeometry relative="1" as="geometry">
            <mxPoint x="135" y="565" as="sourcePoint" />
          </mxGeometry>
        </mxCell>
        <mxCell id="ph3b_r3kZmQ6eec2h-Ne-13" value="2. gửi dữ liệu đăng nhập của người dùng" style="html=1;verticalAlign=bottom;endArrow=block;curved=0;rounded=0;entryX=0;entryY=0;entryDx=0;entryDy=5;" parent="1" source="ph3b_r3kZmQ6eec2h-Ne-9" target="ph3b_r3kZmQ6eec2h-Ne-12" edge="1">
          <mxGeometry relative="1" as="geometry">
            <mxPoint x="400" y="600" as="sourcePoint" />
          </mxGeometry>
        </mxCell>
        <mxCell id="ph3b_r3kZmQ6eec2h-Ne-15" value="alt" style="shape=umlFrame;whiteSpace=wrap;html=1;pointerEvents=0;" parent="1" vertex="1">
          <mxGeometry x="-30" y="650" width="750" height="200" as="geometry" />
        </mxCell>
        <mxCell id="ph3b_r3kZmQ6eec2h-Ne-14" value="3.2 thông báo đăng nhập thất bại" style="html=1;verticalAlign=bottom;endArrow=open;dashed=1;endSize=8;curved=0;rounded=0;exitX=0;exitY=1;exitDx=0;exitDy=-5;" parent="1" source="ph3b_r3kZmQ6eec2h-Ne-12" target="ph3b_r3kZmQ6eec2h-Ne-7" edge="1">
          <mxGeometry relative="1" as="geometry">
            <mxPoint x="550" y="745" as="targetPoint" />
          </mxGeometry>
        </mxCell>
        <mxCell id="ph3b_r3kZmQ6eec2h-Ne-16" value="3.1 thông báo đăng nhập thành công" style="html=1;verticalAlign=bottom;endArrow=open;dashed=1;endSize=8;curved=0;rounded=0;exitX=0;exitY=1;exitDx=0;exitDy=-5;" parent="1" edge="1">
          <mxGeometry relative="1" as="geometry">
            <mxPoint x="17.5" y="710" as="targetPoint" />
            <mxPoint x="642.5" y="710" as="sourcePoint" />
          </mxGeometry>
        </mxCell>
        <mxCell id="ph3b_r3kZmQ6eec2h-Ne-17" value="" style="endArrow=none;dashed=1;html=1;rounded=0;exitX=0.999;exitY=0.47;exitDx=0;exitDy=0;exitPerimeter=0;entryX=-0.001;entryY=0.47;entryDx=0;entryDy=0;entryPerimeter=0;" parent="1" source="ph3b_r3kZmQ6eec2h-Ne-15" target="ph3b_r3kZmQ6eec2h-Ne-15" edge="1">
          <mxGeometry width="50" height="50" relative="1" as="geometry">
            <mxPoint x="300" y="660" as="sourcePoint" />
            <mxPoint x="350" y="610" as="targetPoint" />
          </mxGeometry>
        </mxCell>
        <mxCell id="F-53Oh8A9eYHER_PjNe_-1" value="&lt;font style=&quot;font-size: 11px;&quot;&gt;&lt;span style=&quot;font-family: Arial, sans-serif; font-variant-numeric: normal; font-variant-east-asian: normal; font-variant-alternates: normal; font-variant-position: normal; font-variant-emoji: normal; text-align: left; white-space-collapse: preserve; background-color: rgb(255, 255, 255); box-sizing: border-box; margin: 0px; padding: 0px; vertical-align: baseline;&quot;&gt;&lt;span style=&quot;box-sizing: border-box; margin: 0px; padding: 0px; font-weight: bolder;&quot;&gt;Synchronous Message&lt;/span&gt;&lt;/span&gt;&lt;span style=&quot;font-family: Arial, sans-serif; font-variant-numeric: normal; font-variant-east-asian: normal; font-variant-alternates: normal; font-variant-position: normal; font-variant-emoji: normal; text-align: left; white-space-collapse: preserve; background-color: rgb(255, 255, 255); box-sizing: border-box; margin: 0px; padding: 0px; vertical-align: baseline;&quot;&gt;:&lt;/span&gt;&lt;/font&gt;" style="text;html=1;whiteSpace=wrap;strokeColor=none;fillColor=none;align=center;verticalAlign=middle;rounded=0;" vertex="1" parent="1">
          <mxGeometry x="420" y="570" width="140" height="40" as="geometry" />
        </mxCell>
        <mxCell id="F-53Oh8A9eYHER_PjNe_-2" value="&lt;font style=&quot;font-size: 11px;&quot;&gt;&lt;span style=&quot;font-family: Arial, sans-serif; font-variant-numeric: normal; font-variant-east-asian: normal; font-variant-alternates: normal; font-variant-position: normal; font-variant-emoji: normal; text-align: left; white-space-collapse: preserve; background-color: rgb(255, 255, 255); box-sizing: border-box; margin: 0px; padding: 0px; vertical-align: baseline;&quot;&gt;&lt;span style=&quot;box-sizing: border-box; margin: 0px; padding: 0px; font-weight: bolder;&quot;&gt;Synchronous Message&lt;/span&gt;&lt;/span&gt;&lt;span style=&quot;font-family: Arial, sans-serif; font-variant-numeric: normal; font-variant-east-asian: normal; font-variant-alternates: normal; font-variant-position: normal; font-variant-emoji: normal; text-align: left; white-space-collapse: preserve; background-color: rgb(255, 255, 255); box-sizing: border-box; margin: 0px; padding: 0px; vertical-align: baseline;&quot;&gt;:&lt;/span&gt;&lt;/font&gt;" style="text;html=1;whiteSpace=wrap;strokeColor=none;fillColor=none;align=center;verticalAlign=middle;rounded=0;" vertex="1" parent="1">
          <mxGeometry x="100" y="540" width="140" height="40" as="geometry" />
        </mxCell>
        <mxCell id="F-53Oh8A9eYHER_PjNe_-3" value="&lt;strong style=&quot;forced-color-adjust: none; color: rgb(0, 0, 0); font-family: Arial, sans-serif; font-style: normal; font-variant-ligatures: normal; font-variant-caps: normal; letter-spacing: normal; orphans: 2; text-align: left; text-indent: 0px; text-transform: none; widows: 2; word-spacing: 0px; -webkit-text-stroke-width: 0px; white-space: pre-wrap; background-color: rgb(255, 255, 255); text-decoration-thickness: initial; text-decoration-style: initial; text-decoration-color: initial; box-sizing: border-box; margin: 0px; padding: 0px; font-weight: bolder;&quot;&gt;&lt;font style=&quot;font-size: 11px;&quot;&gt;Return Message&lt;/font&gt;&lt;/strong&gt;" style="text;whiteSpace=wrap;html=1;" vertex="1" parent="1">
          <mxGeometry x="140" y="690" width="160" height="40" as="geometry" />
        </mxCell>
        <mxCell id="F-53Oh8A9eYHER_PjNe_-4" value="&lt;strong style=&quot;forced-color-adjust: none; color: rgb(0, 0, 0); font-family: Arial, sans-serif; font-style: normal; font-variant-ligatures: normal; font-variant-caps: normal; letter-spacing: normal; orphans: 2; text-align: left; text-indent: 0px; text-transform: none; widows: 2; word-spacing: 0px; -webkit-text-stroke-width: 0px; white-space: pre-wrap; background-color: rgb(255, 255, 255); text-decoration-thickness: initial; text-decoration-style: initial; text-decoration-color: initial; box-sizing: border-box; margin: 0px; padding: 0px; font-weight: bolder;&quot;&gt;&lt;font style=&quot;font-size: 11px;&quot;&gt;Return Message&lt;/font&gt;&lt;/strong&gt;" style="text;whiteSpace=wrap;html=1;" vertex="1" parent="1">
          <mxGeometry x="140" y="770" width="160" height="40" as="geometry" />
        </mxCell>
      </root>
    </mxGraphModel>
  </diagram>
</mxfile>
